<svg width="183" height="49" viewBox="0 0 183 49" fill="none" xmlns="http://www.w3.org/2000/svg">
<g clip-path="url(#clip0_1582_26)">
<path d="M34.218 24.2214L48.4273 38.4307H43.3994C42.5523 38.4307 41.7052 38.0754 41.104 37.4743L27.9058 24.2214L41.1587 10.9412C41.7599 10.34 42.5796 9.98483 43.454 10.0121H48.4273L34.218 24.2214ZM8.17678 10.9412C7.57562 10.34 6.75585 9.98483 5.88143 10.0121H0.880859L15.0901 24.2214L0.880859 38.4307H5.90876C6.75585 38.4307 7.60294 38.0754 8.2041 37.4743L21.4297 24.1941L8.17678 10.9412ZM24.6541 27.4731L11.3739 40.726C10.7727 41.3272 10.4448 42.1469 10.4448 43.0214V48.0219L24.6541 33.8127L38.8634 48.0219V42.994C38.8634 42.1469 38.5354 41.2999 37.9343 40.6987L24.6541 27.4731ZM24.6541 20.9697L37.9343 7.71681C38.5354 7.11565 38.8634 6.29588 38.8634 5.42147V0.420898L24.6541 14.6301L10.4448 0.420898V5.42147C10.4448 6.26856 10.7727 7.11565 11.3739 7.71681L24.6541 20.9697Z" fill="url(#paint0_linear_1582_26)"/>
<path fill-rule="evenodd" clip-rule="evenodd" d="M154.7 7.32007V36.5311C154.673 36.9956 154.864 37.4602 155.192 37.8154C155.52 38.1706 155.985 38.3619 156.449 38.3619H156.968C157.46 38.3619 157.925 38.1706 158.253 37.8154C158.58 37.4602 158.772 36.9956 158.772 36.5311V7.32007H162.16V37.2962C162.16 39.5643 160.357 41.3951 158.089 41.4497H155.493C154.372 41.4497 153.307 41.0398 152.514 40.2474C151.722 39.4549 151.285 38.4166 151.285 37.2962V7.32007H154.7ZM178.801 6.99216C181.069 7.04681 182.9 9.17821 182.9 11.4736V14.1788C182.9 14.5614 182.654 14.8893 182.272 14.9986L179.457 15.791V11.9108C179.457 10.9271 178.637 10.1073 177.654 10.1073C176.67 10.1073 175.85 10.8998 175.85 11.9108V15.1352C175.85 17.13 177.326 19.6713 177.326 19.6713L181.37 27.459C183.01 30.5468 182.873 32.8148 182.873 32.8148V37.1323C182.873 38.2526 182.436 39.3456 181.643 40.1654C180.851 40.9852 179.758 41.4224 178.61 41.4497H176.479C174.183 41.3131 172.38 39.4276 172.38 37.1323V32.2957C172.38 31.9131 172.626 31.5852 173.008 31.4759L175.823 30.6835V36.5858C175.823 37.5695 176.643 38.3619 177.654 38.3619C178.637 38.3619 179.457 37.5422 179.43 36.5311V32.6782C179.43 30.7108 177.954 28.0875 177.954 28.0875L173.965 20.2997C172.325 17.212 172.462 14.9439 172.462 14.9439V11.4736C172.462 9.12356 174.347 6.99216 176.725 6.99216H178.801ZM114.832 6.99216C117.128 7.10147 118.931 9.01425 118.931 11.3096V37.2416C118.904 39.5096 117.1 41.3677 114.832 41.477H112.236C109.914 41.4497 108.028 39.5642 108.001 37.2416V11.2823C108.001 10.162 108.438 9.0689 109.231 8.24914C110.023 7.42937 111.116 6.99216 112.264 6.96484L114.832 6.99216ZM75.8934 7.32007L75.0736 10.162C74.9643 10.5445 74.6364 10.7905 74.2539 10.7905H68.8161V21.666H74.4452L73.6254 24.5079C73.5161 24.8631 73.1882 25.1364 72.8056 25.1364H68.8161V37.6788H75.8934L75.101 40.4933C74.9917 40.8759 74.6638 41.1218 74.2812 41.1218H65.4277V7.32007H75.8934ZM136.31 7.32007C138.66 7.3474 140.518 9.23286 140.518 11.5556V36.859C140.518 39.1817 138.633 41.0945 136.31 41.0945H129.752V7.32007H136.31ZM91.6602 18.1957L94.7754 7.32007H98.2457L93.4091 24.2346L98.273 41.1491H94.8027L91.6602 30.2462L88.5451 41.1218H85.0748L89.9114 24.2346L85.0475 7.32007H88.5178L91.6602 18.1957ZM113.685 38.4166C114.176 38.4166 114.641 38.198 114.969 37.8427C115.297 37.4875 115.488 37.023 115.461 36.5311V11.9108C115.488 11.4189 115.297 10.9544 114.969 10.5992C114.641 10.244 114.176 10.0527 113.685 10.0253H113.165C112.154 10.08 111.362 10.8998 111.362 11.9108V36.5311C111.362 37.5422 112.154 38.3619 113.165 38.4166H113.685ZM135.354 37.7061C136.31 37.7061 137.157 37.2143 137.157 35.9026V12.5393C137.157 11.2823 136.31 10.7905 135.354 10.7905H133.14V37.7061H135.354Z" fill="white"/>
</g>
<defs>
<linearGradient id="paint0_linear_1582_26" x1="0.865005" y1="24.2163" x2="30.9282" y2="24.2163" gradientUnits="userSpaceOnUse">
<stop stop-color="white"/>
<stop offset="1" stop-color="white"/>
</linearGradient>
<clipPath id="clip0_1582_26">
<rect width="183" height="49" fill="white"/>
</clipPath>
</defs>
</svg>
