<svg width="246" height="62" viewBox="0 0 246 62" fill="none" xmlns="http://www.w3.org/2000/svg">
<g clip-path="url(#clip0_1582_20)">
<path d="M20.163 21.2697C23.023 21.0527 27.254 20.2747 31.368 17.5527C35.488 20.2787 39.728 21.0557 42.594 21.2697C42.461 26.5067 42.201 30.2567 41.786 33.0177C41.294 36.2847 40.625 37.8727 39.939 38.8267C39.268 39.7577 38.376 40.3887 36.612 41.3637C36.333 41.5177 36.036 41.6787 35.722 41.8497H35.719C34.506 42.5077 33.035 43.3037 31.369 44.3827C29.704 43.3057 28.235 42.5097 27.024 41.8527C26.7246 41.6913 26.4259 41.5287 26.128 41.3647C24.367 40.3897 23.478 39.7597 22.81 38.8287C22.125 37.8757 21.457 36.2877 20.968 33.0187C20.554 30.2577 20.295 26.5067 20.163 21.2687V21.2697Z" fill="white"/>
<path fill-rule="evenodd" clip-rule="evenodd" d="M20.718 0H40.988C52.429 0 61.705 9.276 61.705 20.718V40.988C61.705 52.429 52.429 61.705 40.987 61.705H20.718C9.276 61.705 0 52.43 0 40.987V20.718C0 9.276 9.276 0 20.718 0ZM33.311 11.452C32.7658 10.9969 32.0782 10.7476 31.368 10.7476C30.6578 10.7476 29.9702 10.9969 29.425 11.452C24.795 15.319 19.513 15.292 17.36 15.282H17.072C16.6701 15.2818 16.2721 15.3616 15.9013 15.5167C15.5305 15.6717 15.1942 15.899 14.912 16.1853C14.6299 16.4715 14.4075 16.811 14.2578 17.184C14.1081 17.557 14.034 17.9561 14.04 18.358C14.144 25.253 14.42 30.234 14.972 33.918C15.523 37.598 16.39 40.283 17.884 42.365C19.396 44.47 21.332 45.64 23.194 46.67C23.524 46.853 23.859 47.035 24.198 47.219C25.809 48.094 27.534 49.031 29.601 50.513C30.1161 50.8826 30.7341 51.0813 31.368 51.0813C32.0019 51.0813 32.6199 50.8826 33.135 50.513C35.204 49.03 36.931 48.093 38.545 47.216C38.882 47.033 39.215 46.853 39.545 46.67C41.408 45.641 43.346 44.472 44.86 42.368C46.358 40.286 47.228 37.601 47.781 33.92C48.336 30.234 48.611 25.253 48.716 18.358C48.7221 17.9561 48.6482 17.557 48.4986 17.184C48.349 16.8109 48.1267 16.4713 47.8447 16.185C47.5626 15.8986 47.2264 15.6712 46.8556 15.516C46.4849 15.3609 46.0869 15.281 45.685 15.281L45.393 15.282C43.223 15.292 37.941 15.318 33.311 11.452Z" fill="white"/>
<path d="M82.404 24.8417H75.705V20.8937H93.946V24.8417H87.248V41.8277H82.404V24.8417ZM98.536 27.8617C99.094 27.0837 99.841 26.4957 100.778 26.0967C101.735 25.6987 102.831 25.4987 104.067 25.4987V29.8057C103.719 29.7747 103.37 29.7547 103.021 29.7457C101.685 29.7457 100.639 30.1247 99.881 30.8817C99.123 31.6197 98.744 32.7357 98.744 34.2317V41.8277H94.08V25.7377H98.537L98.536 27.8617ZM121.373 25.7387V41.8277H116.946V39.9127C116.335 40.6057 115.579 41.1569 114.733 41.5277C113.851 41.8916 112.906 42.0749 111.952 42.0667C109.839 42.0667 108.165 41.4587 106.929 40.2427C105.693 39.0267 105.075 37.2227 105.075 34.8297V25.7387H109.739V34.1417C109.739 36.7327 110.826 38.0297 112.999 38.0297C114.115 38.0297 115.013 37.6697 115.691 36.9527C116.368 36.2147 116.707 35.1287 116.707 33.6927V25.7397L121.373 25.7387ZM129.313 42.0667C127.977 42.0667 126.671 41.9067 125.396 41.5887C124.119 41.2487 123.103 40.8307 122.345 40.3317L123.9 36.9827C124.618 37.4407 125.485 37.8197 126.502 38.1187C127.519 38.3987 128.515 38.5377 129.492 38.5377C131.466 38.5377 132.453 38.0497 132.453 37.0717C132.453 36.6137 132.183 36.2847 131.646 36.0857C131.107 35.8857 130.28 35.7157 129.163 35.5767C127.848 35.3767 126.761 35.1477 125.904 34.8897C125.05 34.6325 124.277 34.1584 123.661 33.5137C123.043 32.8557 122.734 31.9187 122.734 30.7027C122.734 29.6857 123.023 28.7887 123.601 28.0107C124.199 27.2137 125.056 26.5957 126.173 26.1567C127.309 25.7187 128.645 25.4987 130.18 25.4987C131.317 25.4987 132.443 25.6287 133.559 25.8887C134.696 26.1277 135.633 26.4657 136.371 26.9047L134.815 30.2247C133.4 29.4267 131.855 29.0277 130.18 29.0277C129.183 29.0277 128.436 29.1677 127.937 29.4467C127.439 29.7257 127.19 30.0847 127.19 30.5237C127.19 31.0217 127.459 31.3697 127.997 31.5697C128.535 31.7697 129.393 31.9587 130.569 32.1387C131.885 32.3577 132.961 32.5967 133.798 32.8557C134.635 33.0952 135.391 33.561 135.981 34.2017C136.599 34.8587 136.908 35.7767 136.908 36.9517C136.908 37.9497 136.61 38.8367 136.012 39.6137C135.413 40.3917 134.536 40.9997 133.38 41.4387C132.244 41.8567 130.888 42.0667 129.313 42.0667ZM148.37 41.0497C147.911 41.3887 147.343 41.6477 146.665 41.8277C145.979 41.9901 145.277 42.0703 144.572 42.0667C142.658 42.0667 141.173 41.5777 140.116 40.6007C139.079 39.6237 138.561 38.1887 138.561 36.2947V29.6857H136.079V26.0967H138.561V22.1797H143.226V26.0967H147.233V29.6867H143.226V36.2347C143.226 36.9127 143.396 37.4407 143.734 37.8197C144.093 38.1787 144.592 38.3587 145.23 38.3587C145.967 38.3587 146.595 38.1587 147.114 37.7597L148.37 41.0497ZM187.837 20.8937L180.989 41.8277H175.786L171.18 27.6527L166.425 41.8277H161.252L154.374 20.8937H159.398L164.123 35.6067L169.057 20.8937H173.542L178.327 35.7267L183.202 20.8937H187.837ZM193.71 25.4987C196.202 25.4987 198.116 26.0967 199.452 27.2937C200.788 28.4697 201.455 30.2537 201.455 32.6467V41.8267H197.089V39.8237C196.213 41.3187 194.578 42.0667 192.185 42.0667C190.949 42.0667 189.873 41.8567 188.955 41.4377C188.058 41.0197 187.37 40.4417 186.892 39.7037C186.413 38.9657 186.174 38.1287 186.174 37.1917C186.174 35.6967 186.733 34.5207 187.849 33.6627C188.985 32.8057 190.73 32.3777 193.082 32.3777H196.791C196.791 31.3607 196.481 30.5827 195.863 30.0447C195.245 29.4867 194.318 29.2067 193.082 29.2067C192.217 29.2083 191.359 29.3501 190.54 29.6267C189.723 29.8857 189.025 30.2437 188.447 30.7027L186.772 27.4427C187.649 26.8247 188.696 26.3467 189.912 26.0077C191.149 25.6682 192.427 25.497 193.71 25.4987ZM193.351 38.9257C194.149 38.9257 194.857 38.7467 195.475 38.3877C196.093 38.0097 196.531 37.4617 196.791 36.7437V35.0987H193.59C191.677 35.0987 190.72 35.7267 190.72 36.9827C190.72 37.5807 190.949 38.0587 191.407 38.4177C191.886 38.7567 192.534 38.9257 193.351 38.9257ZM203.884 19.6377H208.548V41.8277H203.884V19.6377ZM211.084 19.6377H215.749V41.8277H211.084V19.6377ZM234.044 33.8427C234.044 33.9027 234.015 34.3217 233.954 35.0987H221.783C222.003 36.0957 222.521 36.8827 223.338 37.4617C224.156 38.0387 225.172 38.3277 226.389 38.3277C227.226 38.3277 227.964 38.2077 228.602 37.9697C229.283 37.6956 229.902 37.2891 230.425 36.7737L232.908 39.4637C231.393 41.1987 229.18 42.0667 226.269 42.0667C224.455 42.0667 222.85 41.7167 221.454 41.0197C220.059 40.3017 218.982 39.3147 218.225 38.0597C217.467 36.8027 217.088 35.3777 217.088 33.7827C217.088 32.2077 217.457 30.7927 218.195 29.5357C218.928 28.2834 219.994 27.2588 221.275 26.5757C222.591 25.8577 224.056 25.4987 225.671 25.4987C227.246 25.4987 228.672 25.8387 229.947 26.5157C231.208 27.1796 232.248 28.1981 232.938 29.4457C233.675 30.7027 234.044 32.1677 234.044 33.8427ZM225.701 29.0277C224.644 29.0277 223.757 29.3267 223.04 29.9257C222.321 30.5237 221.883 31.3407 221.723 32.3777H229.648C229.489 31.3607 229.05 30.5527 228.332 29.9547C227.615 29.3367 226.737 29.0277 225.701 29.0277ZM245.732 41.0497C245.274 41.3887 244.706 41.6477 244.028 41.8277C243.342 41.9901 242.64 42.0703 241.935 42.0667C240.021 42.0667 238.536 41.5777 237.479 40.6007C236.442 39.6237 235.924 38.1887 235.924 36.2947V29.6857H233.442V26.0967H235.924V22.1797H240.589V26.0967H244.597V29.6867H240.589V36.2347C240.589 36.9127 240.758 37.4407 241.097 37.8197C241.456 38.1787 241.954 38.3587 242.593 38.3587C243.33 38.3587 243.958 38.1587 244.477 37.7597L245.732 41.0497Z" fill="white"/>
</g>
<defs>
<clipPath id="clip0_1582_20">
<rect width="246" height="62" fill="white"/>
</clipPath>
</defs>
</svg>
