<svg width="163" height="41" viewBox="0 0 163 41" fill="none" xmlns="http://www.w3.org/2000/svg">
<g clip-path="url(#clip0_1582_8)">
<path d="M17.0734 25.6782C18.6725 25.7041 22.1518 25.7604 22.1764 23.5284C22.2007 21.2187 18.742 21.2897 17.1169 21.3231C16.9496 21.3265 16.8018 21.3295 16.6792 21.3295V25.6737C16.7913 25.6737 16.9242 25.6758 17.0734 25.6782Z" fill="white"/>
<path d="M16.9433 19.353C18.2321 19.3965 21.2664 19.4989 21.2915 17.4149C21.3158 15.3011 18.4341 15.3667 17.0747 15.3977C16.9339 15.4009 16.8093 15.4038 16.7061 15.4038V19.3457C16.7761 19.3474 16.8556 19.3501 16.9433 19.353Z" fill="white"/>
<path fill-rule="evenodd" clip-rule="evenodd" d="M35.2089 13.7407C35.2089 35.1396 18.0737 40.9586 18.0737 40.9586C18.0737 40.9586 0.938477 35.1396 0.938477 13.7407V6.04464C0.938477 5.21336 1.58205 4.51615 2.41334 4.46252C5.52395 4.32844 12.8983 3.68486 18.0737 0.922852C23.2491 3.68486 30.6234 4.32844 33.734 4.46252C34.5653 4.51615 35.2089 5.21336 35.2089 6.04464V13.7407ZM20.2457 13.1776C22.7932 13.4189 24.7776 14.2234 24.9921 16.5564C25.153 18.2726 24.429 19.2915 23.2759 19.8279C25.153 20.2837 26.3061 21.4368 26.0647 23.9307C25.7429 27.0413 23.4368 27.8725 20.1117 28.0334V31.305H18.1273V28.0871C17.6178 28.0871 17.0815 28.0871 16.5452 28.0603V31.305H14.5876V28.0334C14.1318 28.0066 10.9943 28.0334 10.9943 28.0334L11.0212 25.6469H13.2469V15.2156H10.7262V13.1508C10.7262 13.1508 14.2659 13.1239 14.6949 13.1239L14.6681 9.87925H16.6524V13.0703H18.2614V9.90607H20.2457V13.1776Z" fill="white"/>
<path d="M69.504 27.9394C69.504 29.6556 69.1553 31.0768 68.485 32.2299C67.8146 33.3829 66.9028 34.3215 65.8034 35.0187C64.6771 35.7159 63.4168 36.2254 61.9956 36.5472C60.5743 36.8421 59.0995 37.003 57.6246 37.003H45.209V5.81641H57.6246C58.8313 5.81641 60.0648 5.95048 61.3252 6.19182C62.5855 6.43317 63.7386 6.86222 64.7576 7.47898C65.7766 8.09574 66.6079 8.90021 67.2783 9.91921C67.9218 10.9382 68.2436 12.2522 68.2436 13.8343C68.2436 15.5773 67.7878 16.9986 66.8224 18.1248C65.8838 19.2511 64.6503 20.0824 63.1218 20.565V20.6455C64.0067 20.8064 64.838 21.0745 65.6157 21.4768C66.3933 21.879 67.0637 22.3885 67.6269 23.0053C68.19 23.622 68.6459 24.3461 68.9945 25.1773C69.3162 25.9818 69.504 26.8935 69.504 27.9394ZM60.9498 14.8533C60.9498 13.8075 60.5475 13.0299 59.7431 12.5472C58.9386 12.0645 57.7319 11.8231 56.1498 11.8231H52.4492V18.2589H56.4984C57.9196 18.2589 58.9922 17.9639 59.7699 17.4008C60.5743 16.8109 60.9498 15.9528 60.9498 14.8533ZM61.9688 27.2153C61.9688 25.9282 61.4861 25.0165 60.5207 24.5338C59.5553 24.0243 58.2682 23.7829 56.6324 23.7829H52.4492V30.9159H56.6861C57.276 30.9159 57.8928 30.8623 58.5095 30.755C59.1263 30.6477 59.7162 30.46 60.2257 30.2187C60.7352 29.9505 61.1643 29.5751 61.4861 29.0924C61.8079 28.6097 61.9688 27.993 61.9688 27.2153Z" fill="white"/>
<path d="M79.5063 8.06877C79.5063 8.6319 79.399 9.1414 79.1845 9.62408C78.97 10.1068 78.675 10.5358 78.2996 10.8844C77.9242 11.233 77.4951 11.5012 76.9856 11.7157C76.4761 11.9302 75.9398 12.0107 75.3767 12.0107C74.1968 12.0107 73.2314 11.6352 72.427 10.8308C71.6225 10.0531 71.2471 9.11459 71.2471 8.04196C71.2471 7.50565 71.3543 6.99615 71.5689 6.51347C71.7834 6.03078 72.0784 5.60173 72.4538 5.25313C72.8292 4.90452 73.2851 4.60956 73.7677 4.39503C74.2772 4.18051 74.8136 4.07324 75.4035 4.07324C75.9666 4.07324 76.5029 4.1805 77.0124 4.36821C77.5219 4.58274 77.9778 4.8509 78.3264 5.1995C78.7018 5.5481 78.9968 5.97715 79.2113 6.45983C79.399 6.96933 79.5063 7.50564 79.5063 8.06877ZM71.7566 15.0676H78.9968V37.0028H71.7566V15.0676Z" fill="white"/>
<path d="M92.0826 20.4313V28.8246C92.0826 29.8704 92.2703 30.6212 92.6726 31.1575C93.0748 31.667 93.772 31.9352 94.8178 31.9352C95.1664 31.9352 95.5418 31.9084 95.9441 31.8547C96.3463 31.8011 96.6681 31.7207 96.9363 31.5866L97.0167 36.8693C96.5072 37.057 95.8904 37.191 95.1128 37.3251C94.3351 37.4592 93.5843 37.5128 92.8066 37.5128C91.3318 37.5128 90.0983 37.3251 89.1061 36.9497C88.1139 36.5743 87.3094 36.0648 86.6927 35.3676C86.1027 34.6704 85.6469 33.8659 85.3787 32.9005C85.1106 31.9352 84.9765 30.8894 84.9765 29.7095V20.4313H81.5173V15.0681H85.0033V9.30273H92.1094V15.0681H97.258V20.4313H92.0826Z" fill="white"/>
<path d="M123.403 37.0569C121.365 37.5664 119.14 37.8077 116.726 37.8077C114.232 37.8077 111.926 37.4055 109.835 36.6278C107.743 35.8234 105.92 34.7239 104.418 33.2759C102.916 31.8278 101.71 30.1116 100.878 28.1004C100.02 26.0893 99.5911 23.8368 99.5911 21.3697C99.5911 18.8759 100.02 16.6234 100.905 14.5854C101.763 12.5474 102.97 10.8312 104.498 9.40993C106.027 7.9887 107.824 6.88927 109.861 6.13843C111.926 5.38759 114.125 4.98535 116.512 4.98535C118.979 4.98535 121.258 5.36077 123.377 6.11161C125.495 6.86245 127.211 7.85462 128.525 9.14178L123.779 14.5585C123.055 13.7004 122.063 13.0032 120.883 12.4669C119.676 11.9306 118.308 11.6625 116.78 11.6625C115.466 11.6625 114.232 11.9038 113.133 12.3865C112.007 12.8692 111.041 13.5396 110.237 14.4245C109.406 15.2826 108.762 16.3284 108.333 17.5083C107.877 18.6882 107.636 20.0021 107.636 21.3965C107.636 22.8446 107.85 24.1585 108.253 25.3653C108.655 26.572 109.272 27.6178 110.076 28.4759C110.88 29.334 111.873 30.0312 113.079 30.5139C114.259 30.9965 115.627 31.2379 117.155 31.2379C118.04 31.2379 118.872 31.1842 119.676 31.0502C120.454 30.9161 121.205 30.7016 121.875 30.4066V24.7217H115.922V18.5809H128.793V35.0993C127.211 35.9038 125.441 36.5474 123.403 37.0569Z" fill="white"/>
<path d="M155.904 25.9554C155.904 27.7521 155.582 29.361 154.939 30.8359C154.295 32.2839 153.41 33.5175 152.284 34.5364C151.158 35.5554 149.871 36.3331 148.396 36.8962C146.921 37.4593 145.366 37.7275 143.676 37.7275C142.04 37.7275 140.458 37.4593 138.983 36.8962C137.509 36.3331 136.195 35.5554 135.095 34.5364C133.996 33.5175 133.111 32.2839 132.467 30.8359C131.824 29.3878 131.502 27.7521 131.502 25.9554C131.502 24.1588 131.824 22.5499 132.467 21.1018C133.111 19.6538 133.996 18.4471 135.095 17.4549C136.195 16.4627 137.482 15.685 138.983 15.1755C140.458 14.6392 142.04 14.3711 143.676 14.3711C145.339 14.3711 146.921 14.6392 148.396 15.1755C149.871 15.7119 151.158 16.4627 152.284 17.4549C153.41 18.4471 154.268 19.6806 154.939 21.1018C155.582 22.5499 155.904 24.1588 155.904 25.9554ZM148.959 25.9554C148.959 25.2582 148.852 24.561 148.61 23.8906C148.369 23.2202 148.047 22.6303 147.591 22.094C147.162 21.5845 146.599 21.1554 145.956 20.8336C145.312 20.5119 144.561 20.351 143.703 20.351C142.845 20.351 142.094 20.5119 141.451 20.8336C140.807 21.1554 140.271 21.5845 139.842 22.094C139.413 22.6035 139.091 23.1934 138.876 23.8906C138.662 24.561 138.554 25.2582 138.554 25.9554C138.554 26.6526 138.662 27.3499 138.876 28.0202C139.091 28.6906 139.413 29.3074 139.868 29.8437C140.297 30.38 140.861 30.8359 141.504 31.1577C142.148 31.4795 142.899 31.6404 143.757 31.6404C144.615 31.6404 145.366 31.4795 146.009 31.1577C146.653 30.8359 147.189 30.4068 147.645 29.8437C148.074 29.3074 148.423 28.6906 148.637 28.0202C148.852 27.3499 148.959 26.6526 148.959 25.9554Z" fill="white"/>
<path d="M159.578 32.7129C160.946 32.7129 162.099 33.7855 162.099 35.2068C162.099 36.6548 160.919 37.7274 159.578 37.7274C158.21 37.7274 157.03 36.6548 157.03 35.2068C157.03 33.7587 158.184 32.7129 159.578 32.7129ZM159.578 33.1152C158.425 33.1152 157.513 34.0269 157.513 35.2068C157.513 36.4403 158.425 37.2984 159.578 37.2984C160.731 37.2984 161.616 36.4135 161.616 35.2068C161.616 34.0001 160.704 33.1152 159.578 33.1152ZM159.042 36.6548H158.586V33.7587H159.685C160.382 33.7587 160.704 34.0269 160.704 34.59C160.704 35.0995 160.382 35.3408 159.953 35.3945L160.785 36.6548H160.302L159.524 35.3945H159.015V36.6548H159.042ZM159.042 35.0459H159.578C160.114 35.0459 160.302 34.885 160.302 34.5632C160.302 34.295 160.168 34.1341 159.658 34.1341H159.068V35.0459H159.042Z" fill="white"/>
</g>
<defs>
<clipPath id="clip0_1582_8">
<rect width="163" height="41" fill="white"/>
</clipPath>
</defs>
</svg>
