<svg width="253" height="48" viewBox="0 0 253 48" fill="none" xmlns="http://www.w3.org/2000/svg">
<g clip-path="url(#clip0_1582_4)">
<path fill-rule="evenodd" clip-rule="evenodd" d="M1.84008 16.1023L0.153076 7.82132L2.76108 0.15332L19.1701 6.28832H32.6651L48.9221 0.26632L49.0741 0.15332L49.0911 0.20332L49.2271 0.15332L49.1041 0.24332L51.6811 7.82132L49.9941 16.1023L51.2211 16.8693L49.5341 18.0963L50.7611 19.0163L49.0741 20.5503L50.1471 21.1633L47.8471 23.9233L51.3741 34.8123H42.0191L38.7981 34.8903L41.8661 34.9653L36.6291 42.7453L36.6521 42.9403L30.3641 45.8533V44.0133L29.7511 39.5663L35.6061 35.0613L35.5831 34.8513L35.5791 34.9653L29.6691 39.5113L29.7511 39.5663L30.2111 44.0133L29.7511 43.5533H22.0831L21.8261 43.8103L21.8011 43.9883L22.0841 43.7063H29.7511L30.2111 44.1663V46.0063L36.6521 42.9403L34.5051 44.7803L29.9051 47.8473H22.0831L17.6361 44.7793L15.3361 42.9393L21.6231 46.0063V45.9333L15.3351 42.9393L16.2421 35.0903L16.2271 35.0613L15.3351 42.9393L3.83408 46.1593L0.614076 34.9653L9.96808 34.8113L10.0681 34.9623L13.1131 34.8883L9.96808 34.8113L0.613076 34.8123L4.10508 24.0343L1.84008 21.3163L2.91408 20.5493L1.22708 19.0163L2.45408 18.0963L0.767076 16.8693L1.84008 16.1023ZM11.5021 25.6103L22.6881 26.0643L22.6961 26.2183L11.5811 25.7673L11.5021 25.6103ZM28.6771 29.9043V38.9273L28.9841 26.2243L30.0581 32.0503L30.2031 32.0083L30.2371 31.9983L35.7321 30.3643L35.5841 34.8123L35.7361 34.8153L35.8851 30.3653L31.8981 28.5253L31.8701 28.5823L31.7441 28.5243L30.1691 31.8193L29.1381 26.2243L40.3311 25.7703L40.4851 25.6103L37.2711 20.8653L40.3331 25.7643L28.9841 26.2243L28.9831 26.2343L28.6771 29.9043ZM16.2511 34.9643H16.2561L16.2521 35.0003L16.2511 34.9643ZM16.2511 34.8433L16.2561 34.9643L16.2501 34.9553L16.2481 34.8773L16.2521 34.8423L16.2511 34.8433ZM11.6651 25.9333L11.6601 25.9213L16.1031 30.3643L16.2511 34.8123H16.2461L16.1031 30.5183L11.6651 25.9323V25.9333ZM16.1031 30.3643L20.0901 28.5243L21.7771 32.0513L16.1031 30.3643ZM29.9091 14.3503L38.9861 7.68032L29.9721 14.4053L29.9091 14.3503ZM22.2371 39.5673L15.3391 42.9393L22.2041 39.8053L22.2371 39.5673Z" fill="white"/>
<path d="M36.6521 42.9395L42.0191 34.8115L51.3731 34.9645L48.1531 46.1595L36.6521 42.9395Z" fill="white"/>
<path d="M78.9429 12.2682H75.7229C75.7229 12.2682 75.5689 12.2682 75.5689 12.4222L72.8089 21.4702C72.8089 21.6232 72.6549 21.6232 72.5019 21.4702L69.7419 12.4222C69.7419 12.4222 69.7419 12.2682 69.5879 12.2682H64.8339C64.8339 12.2682 64.6809 12.2682 64.6809 12.4222V35.4252C64.6809 35.4252 64.6809 35.5782 64.8339 35.5782H68.2079C68.2079 35.5782 68.3609 35.5782 68.3609 35.4252V17.7892C68.3609 17.6362 68.5139 17.6362 68.6679 17.7892L71.4279 26.8372L71.5819 27.4512C71.5819 27.4512 71.5819 27.6042 71.7349 27.6042H74.3419C74.3419 27.6042 74.4949 27.6042 74.4949 27.4512L74.6489 26.8372L77.4089 17.7892C77.4089 17.6362 77.7159 17.6362 77.7159 17.7892V35.2722C77.7159 35.2722 77.7159 35.4252 77.8689 35.4252H81.2429C81.2429 35.4252 81.3959 35.4252 81.3959 35.2722V12.2682C81.3959 12.2682 81.3959 12.1152 81.2429 12.1152H78.9429V12.2682ZM92.9239 31.8982V24.8432C92.9239 24.8432 92.9239 24.6902 93.0769 24.6902H101.971C101.971 24.6902 102.125 24.6902 102.125 24.5372V21.6232C102.125 21.6232 102.125 21.4702 101.971 21.4702H93.0769C93.0769 21.4702 92.9239 21.4702 92.9239 21.3162V15.1822C92.9239 15.1822 92.9239 15.0292 93.0769 15.0292H103.198C103.198 15.0292 103.352 15.0292 103.352 14.8752V12.2682C103.352 12.2682 103.352 12.1152 103.198 12.1152H89.5499C89.5499 12.1152 89.3959 12.1152 89.3959 12.2682V34.9652C89.3959 34.9652 89.3959 35.1182 89.5499 35.1182H103.505C103.505 35.1182 103.658 35.1182 103.658 34.9652V31.8982C103.658 31.8982 103.658 31.7442 103.505 31.7442L92.9239 31.8982ZM127.454 12.1152H111.812C111.812 12.1152 111.658 12.1152 111.658 12.2682V15.1822C111.658 15.1822 111.658 15.3352 111.812 15.3352H117.946V35.2722C117.946 35.2722 117.946 35.4252 118.099 35.4252H121.473C121.473 35.4252 121.626 35.4252 121.626 35.2722V15.3352H127.761C127.761 15.3352 127.914 15.3352 127.914 15.1822L127.454 12.1152ZM150.023 35.4252H153.09C153.243 35.4252 153.243 35.2722 153.243 35.2722L146.955 12.2682C146.955 12.2682 146.955 12.1152 146.802 12.1152H142.355C142.355 12.1152 142.201 12.1152 142.201 12.2682L135.914 35.2722C135.914 35.4252 135.914 35.4252 136.067 35.4252H139.134C139.134 35.4252 139.288 35.4252 139.288 35.2722L141.128 28.5242C141.128 28.5242 141.128 28.3712 141.281 28.3712H148.029C148.029 28.3712 148.182 28.3712 148.182 28.5242L150.023 35.4252C149.869 35.4252 149.869 35.4252 150.023 35.4252ZM142.048 25.3042L144.502 16.4092C144.502 16.2562 144.655 16.2562 144.808 16.4092L147.262 25.3042C147.262 25.4572 147.262 25.4572 147.109 25.4572H142.201C142.048 25.4572 142.048 25.3032 142.048 25.3032V25.3042ZM172.438 12.2682C172.284 12.2682 172.284 12.2682 172.438 12.2682L169.524 21.3162C169.524 21.4702 169.371 21.4702 169.217 21.3162L166.457 12.2682C166.457 12.2682 166.457 12.1152 166.304 12.1152H161.396C161.396 12.1152 161.243 12.1152 161.243 12.2682V35.2722C161.243 35.2722 161.243 35.4252 161.396 35.4252H164.77C164.77 35.4252 164.923 35.4252 164.923 35.2722V17.7892C164.923 17.6362 165.077 17.6362 165.23 17.7892L167.991 26.8372L168.144 27.4512C168.144 27.4512 168.144 27.6042 168.297 27.6042H170.904C170.904 27.6042 171.058 27.6042 171.058 27.4512L171.211 26.8372L173.971 17.7892C173.971 17.6362 174.278 17.6362 174.278 17.7892V35.2722C174.278 35.2722 174.278 35.4252 174.431 35.4252H177.805C177.805 35.4252 177.959 35.4252 177.959 35.2722V12.2682C177.959 12.2682 177.959 12.1152 177.805 12.1152H172.438V12.2682ZM200.067 35.4252H203.134C203.288 35.4252 203.288 35.2722 203.288 35.2722L197 12.2682C197 12.2682 197 12.1152 196.847 12.1152H192.4C192.4 12.1152 192.246 12.1152 192.246 12.2682L185.959 35.2722C185.959 35.4252 185.959 35.4252 186.112 35.4252H189.179C189.179 35.4252 189.332 35.4252 189.332 35.2722L191.173 28.5242C191.173 28.5242 191.173 28.3712 191.326 28.3712H198.074C198.074 28.3712 198.227 28.3712 198.227 28.5242L200.067 35.4252ZM192.246 25.3042L194.7 16.4092C194.7 16.2562 194.853 16.2562 195.007 16.4092L197.46 25.3042C197.46 25.4572 197.46 25.4572 197.307 25.4572H192.4C192.246 25.4572 192.246 25.3032 192.246 25.3032V25.3042ZM223.249 24.2302C221.869 23.3102 220.336 22.6962 218.955 21.9302C218.035 21.4702 217.115 21.0102 216.195 20.2432C214.815 19.1692 215.122 16.8692 216.502 15.9492C218.495 14.5692 221.869 15.3352 222.329 18.0962C222.329 18.0962 222.329 18.2492 222.483 18.2492H225.55C225.703 18.2492 225.703 18.2492 225.703 18.0962C225.55 16.2562 224.783 14.5692 223.403 13.6492C222.176 12.7292 220.642 12.1152 219.109 12.1152C210.981 12.1152 210.214 20.7032 214.661 23.3102C215.122 23.6172 219.415 25.7642 220.949 26.6842C222.483 27.6042 222.943 29.2912 222.329 30.6712C221.716 31.8982 220.182 32.8182 218.649 32.6642C216.962 32.5112 215.582 31.5912 215.122 30.2112C214.968 29.9042 214.968 29.4442 214.968 29.2912C214.968 29.2912 214.968 29.1372 214.815 29.1372H211.441C211.441 29.1372 211.288 29.1372 211.288 29.2912C211.288 31.7442 211.901 32.9712 213.588 34.1982C215.122 35.4252 216.808 35.8852 218.495 35.8852C223.096 35.8852 225.396 33.2782 225.856 30.6712C226.316 28.0642 225.55 25.7642 223.249 24.2302ZM252.233 35.1182L240.731 23.3102V23.1572L251.16 12.4222C251.313 12.2682 251.16 12.2682 251.006 12.2682H246.559L237.818 21.3162C237.664 21.4702 237.664 21.3162 237.664 21.1632V12.2682C237.664 12.2682 237.664 12.1152 237.511 12.1152H234.137C234.137 12.1152 233.984 12.1152 233.984 12.2682V35.2722C233.984 35.2722 233.984 35.4252 234.137 35.4252H237.511C237.511 35.4252 237.664 35.4252 237.664 35.2722V25.1502C237.664 24.9972 237.818 24.9972 237.818 24.9972L247.786 35.2722H252.233C252.233 35.2722 252.386 35.1182 252.233 35.1182Z" fill="white"/>
</g>
<defs>
<clipPath id="clip0_1582_4">
<rect width="253" height="48" fill="white"/>
</clipPath>
</defs>
</svg>
