<svg style="top: -20%" class="uk-position-right uk-opacity-30" viewBox="0 0 200 200" xmlns="http://www.w3.org/2000/svg">
                                            <path fill="#F796FF" d="M47.5,-67.2C55.9,-59.3,53.2,-37.9,56.7,-20.1C60.2,-2.3,69.9,11.8,70.8,27.3C71.7,42.9,63.8,59.9,50.6,64.4C37.3,68.9,18.6,60.8,-0.3,61.2C-19.3,61.6,-38.6,70.7,-53.5,66.7C-68.4,62.8,-78.9,45.9,-78.8,29.5C-78.7,13.2,-67.9,-2.7,-59.8,-16.8C-51.6,-31,-46,-43.3,-36.5,-50.9C-27,-58.4,-13.5,-61.1,3,-65.2C19.6,-69.4,39.1,-75.1,47.5,-67.2Z" transform="translate(100 100)">
                                        </path></svg>